<?xml version="1.0" encoding="utf-8"?>
<!-- Generator: Adobe Illustrator 25.0.1, SVG Export Plug-In . SVG Version: 6.00 Build 0)  -->
<svg version="1.1" id="Layer_1" xmlns="http://www.w3.org/2000/svg" xmlns:xlink="http://www.w3.org/1999/xlink" x="0px" y="0px"
	 viewBox="0 0 715 215" style="enable-background:new 0 0 715 215;" xml:space="preserve">
<style type="text/css">
	.st0{fill:#1EAFE1;}
	.st1{fill:#086E87;}
	.st2{fill:#F6F9F9;}
</style>
<path class="st0" d="M95.5,211.74c-23.17,0-46.33,0.03-69.5-0.01c-14.54-0.02-21.03-6.55-21.02-21.01
	C5.01,153.56,5.09,116.39,5,79.23c-0.02-6.53,2.2-11.55,7.46-15.44C36.84,45.8,61.1,27.65,85.55,9.75
	c10.12-7.41,16.06-6.63,26.87,1.84c21.34,16.75,42.75,33.41,64.26,49.93c6.57,5.04,9.77,10.93,9.69,19.54
	c-0.38,37.16-0.21,74.33-0.23,111.5c0,12.27-6.69,19.08-19.14,19.12c-23.83,0.07-47.67,0.02-71.5,0.02
	C95.5,211.72,95.5,211.73,95.5,211.74z M95.69,200.92c0-0.01,0-0.02,0-0.03c23.66,0,47.33,0.01,70.99-0.01
	c6.92-0.01,9.04-2.06,9.05-8.84c0.01-37.16-0.07-74.33,0.04-111.49c0.01-4.27-1.43-7.26-4.72-9.81
	c-22.76-17.62-45.5-35.28-68.17-53.02c-3.45-2.7-6.56-2.69-9.94-0.18c-4.52,3.36-9.06,6.7-13.61,10.02
	C60.81,41.1,42.36,54.73,23.69,68.06c-5.54,3.96-8.19,8.23-8.1,15.51c0.44,36.16,0.2,72.32,0.22,108.49c0,7.03,1.81,8.85,8.89,8.86
	C48.36,200.94,72.03,200.92,95.69,200.92z"/>
<path class="st0" d="M697.12,174.16c3.69,5.46,7.73,11.32,11.65,17.27c4.27,6.49,4.07,10.87-0.46,14.06
	c-5.01,3.52-10.66,2.12-14.86-3.99c-4.15-6.03-8.28-12.08-11.99-18.38c-3.13-5.32-7.46-7.01-13.35-6.57
	c-3.28,0.25-4.34,1.55-4.25,4.65c0.16,5.33,0.16,10.66,0.1,15.99c-0.08,6.43-3.69,9.97-9.84,9.84c-5.84-0.13-9.08-3.73-9.08-10.04
	c0-20.16,0-40.32,0-60.48c0-7.34,2.82-10.2,10.26-10.23c10-0.05,20-0.27,29.99,0.02c19.48,0.57,30.71,19.32,21.69,36.59
	C704.78,167.11,700.59,170.29,697.12,174.16z M664.12,161.09c7.57-0.46,14.5-0.6,21.36-1.38c4.61-0.53,6.04-4.14,6.03-8.4
	c-0.01-4.32-1.7-7.83-6.21-8.31c-6.99-0.74-14.05-0.79-21.18-1.13C664.12,148.6,664.12,154.22,664.12,161.09z"/>
<path class="st0" d="M439.35,169.71c0-6.93,0-13.86,0-20.79c0-4.33-0.16-8.66,0.04-12.98c0.28-6,3.75-9.44,8.92-9.22
	c5.03,0.22,8.07,3.57,8.09,9.42c0.07,20.14-0.01,40.28,0.03,60.43c0.01,4.24-1.39,7.56-5.46,9.19c-4.34,1.74-8.86,0.22-11.93-3.63
	c-9.96-12.46-19.95-24.9-29.9-37.36c-0.61-0.76-1.03-1.67-1.53-2.51c-0.55,0.22-1.1,0.43-1.65,0.65c0,1.87,0,3.74,0,5.61
	c0,9.16,0.03,18.31,0,27.47c-0.03,6.72-3.5,10.72-9.12,10.64c-5.04-0.08-8.14-4-8.15-10.4c-0.03-19.14-0.05-38.29-0.04-57.43
	c0-7.07,1.61-9.83,6.54-11.57c4.5-1.59,8.19-0.04,12.29,5.17c9.14,11.63,18.27,23.28,27.43,34.9c0.86,1.09,1.92,2.03,2.88,3.04
	C438.28,170.13,438.82,169.92,439.35,169.71z"/>
<path class="st1" d="M530.85,58.71c0-11.75-0.05-23.49,0.02-35.24c0.04-8.22,5.57-12.03,12.69-8.16c2.17,1.18,4,5.07,4.05,7.75
	c0.33,20.47,0.22,40.95,0.13,61.43c-0.02,4.26-2.35,7.37-6.42,8.57c-4.6,1.36-8.36-0.17-11.38-4.05
	c-10.01-12.86-20.15-25.62-30.24-38.41c-0.59-0.75-1.24-1.46-2.7-3.18c0,9.83,0,18.53,0,27.22c0,3.16,0.03,6.33-0.02,9.49
	c-0.07,4.81-4.84,9.95-9.05,9.83c-4.3-0.12-7.89-4.51-7.9-9.89c-0.05-19.64,0.01-39.29-0.12-58.93c-0.03-4.69,0.84-8.6,5.62-10.53
	c5.14-2.08,9.28,0.44,12.2,3.95c8.71,10.48,16.96,21.34,25.37,32.07c2.21,2.82,4.32,5.71,6.48,8.57
	C529.99,59.03,530.42,58.87,530.85,58.71z"/>
<path class="st1" d="M284.26,45.62c8.83-9.52,17.47-19.22,26.63-28.41c2.17-2.18,6.22-3.94,9.14-3.6c6.69,0.78,9.13,9.25,4.33,14.25
	c-5.77,6-11.9,11.65-17.91,17.41c-1.18,1.13-2.52,2.09-3.91,3.22c7.55,9.94,14.73,19.29,21.78,28.73
	c4.64,6.22,3.33,12.41-3.07,15.36c-4.52,2.09-8.17,1.07-11.71-3.5c-6.11-7.9-12.13-15.88-18.2-23.81c-0.68-0.89-1.44-1.73-2.27-2.73
	c-4.78,3.03-8.25,6.31-7.34,12.5c0.45,3.1,0.21,6.33,0.04,9.49c-0.32,5.55-4.07,9.03-9.38,8.92c-5.45-0.11-9.25-3.51-9.28-9
	c-0.12-20.5-0.11-41,0.01-61.5c0.03-5.39,4.06-9.05,9.27-9.08c5.57-0.03,9.28,3.53,9.4,9.38c0.14,6.92,0.03,13.85,0.03,20.77
	C282.61,44.54,283.44,45.08,284.26,45.62z"/>
<path class="st1" d="M665.94,48.76c7.57,10.02,14.95,19.65,22.16,29.4c3.05,4.12,2.7,9.21-0.45,12.31
	c-3.53,3.47-8.74,4.17-12.27,1.38c-1.54-1.21-2.74-2.89-3.95-4.47c-6.38-8.28-12.72-16.59-19.02-24.81
	c-5.79,3.18-8.76,7.14-7.54,13.6c0.51,2.73,0.24,5.66,0.02,8.48c-0.43,5.51-4.28,9.05-9.46,8.97c-5.17-0.08-9.18-3.78-9.21-9.21
	c-0.13-20.33-0.13-40.66,0.01-60.99c0.04-6.28,3.95-9.84,9.7-9.58c5.75,0.26,9,3.93,9.03,10.27c0.03,6.59,0.01,13.19,0.01,21.15
	c3.64-3.47,6.36-6,9.01-8.59c7.05-6.88,13.93-13.95,21.17-20.64c5.37-4.96,12.86-2.85,14.69,3.78c1.07,3.86-0.6,6.77-3.31,9.33
	C679.75,35.56,673.02,42.01,665.94,48.76z"/>
<path class="st0" d="M625.09,197.2c0.07,4.68-1.48,7.52-5.22,9.01c-3.9,1.55-7.42,0.91-9.71-2.58c-2.07-3.16-3.72-6.66-5.1-10.19
	c-1-2.55-2.27-3.62-5.09-3.56c-6.99,0.17-13.99,0.15-20.97-0.07c-2.78-0.08-4.26,0.85-5.2,3.43c-1.03,2.8-2.38,5.49-3.71,8.17
	c-2.55,5.13-7.23,6.98-11.96,4.83c-3.85-1.75-5.42-6.68-3.36-11.68c6.29-15.22,12.71-30.38,19.1-45.56
	c2.38-5.66,4.86-11.29,7.23-16.96c1.59-3.8,4.46-5.8,8.5-5.78c4.05,0.02,6.92,2.1,8.51,5.84c8.79,20.66,17.58,41.31,26.32,61.99
	C624.92,195.3,624.98,196.68,625.09,197.2z M589.07,156.88c-2.34,5.54-4.17,9.91-6.42,15.23c4.59,0,8.44,0,13.06,0
	C593.43,166.86,591.48,162.4,589.07,156.88z"/>
<path class="st0" d="M262.91,166.99c0-10.16,0.03-20.33-0.01-30.49c-0.02-5.49,3.56-9.74,9.09-9.85c8.99-0.18,18.09-0.77,26.97,0.29
	c13.79,1.63,22.22,14.76,21.5,28.03c-0.71,13.2-11.28,26.03-27.37,25.16c-12.27-0.67-12.19-0.12-12.43,12.28
	c-0.08,4.12,1.25,8.59-3.15,11.92c-3.05,2.31-5.9,2.91-9.22,1.46c-3.55-1.55-5.27-4.39-5.26-8.29c0.02-10.17,0.01-20.33,0.01-30.5
	C263,166.99,262.96,166.99,262.91,166.99z M280.74,144.39c0,5.42-0.17,10.21,0.13,14.98c0.07,1.13,1.68,3.03,2.68,3.1
	c4.11,0.3,8.31,0.37,12.39-0.13c4.93-0.61,6.22-4.6,6.27-8.8c0.05-3.99-1.24-8.24-5.53-8.95
	C291.57,143.75,286.23,144.39,280.74,144.39z"/>
<path class="st0" d="M520.94,172.9c0,7.83,0.07,15.65-0.02,23.48c-0.07,6.55-3.47,10-9.68,10.09c-5.81,0.08-9.4-3.79-9.42-10.4
	c-0.06-15.48-0.19-30.97,0.05-46.45c0.07-4.32-1.6-5.56-5.48-5.41c-3.32,0.13-6.67,0.13-9.98-0.07c-4.67-0.29-7.78-3.85-7.83-8.64
	c-0.06-4.65,3.14-8.4,7.96-8.45c16.65-0.18,33.3-0.2,49.95-0.08c4.39,0.03,7.49,3.79,7.58,8.31c0.1,4.75-2.51,8.18-7.11,8.7
	c-3.29,0.37-6.68,0.45-9.97,0.15c-4.94-0.46-6.32,1.58-6.09,6.31c0.36,7.48,0.1,14.98,0.1,22.47
	C520.97,172.9,520.95,172.9,520.94,172.9z"/>
<path class="st1" d="M370.87,75.8c8.21,0,15.85,0,23.49,0c6.91,0,10.79,3.19,10.86,8.92c0.07,5.5-4.06,8.89-10.89,8.89
	c-10.48,0.01-20.97,0.06-31.45-0.03c-7.5-0.07-10.71-3.25-10.73-10.64c-0.05-19.64-0.05-39.27,0-58.91
	c0.02-6.12,3.75-10.13,9.19-10.14c5.82-0.02,9.47,3.88,9.49,10.33c0.05,15.31,0.03,30.62,0.04,45.93
	C370.87,71.93,370.87,73.72,370.87,75.8z"/>
<path class="st1" d="M450.01,22.17c0,20.19,0.03,40.4-0.02,60.61c-0.02,6.77-4.41,11.27-10.17,10.69c-5.14-0.52-8.5-3.88-8.53-9.29
	c-0.11-20.28-0.06-40.56-0.02-60.84c0.01-4.17,1.96-7.97,5.81-8.77c3.11-0.65,6.92,0.67,10.03,2.01
	C448.49,17.17,448.94,19.96,450.01,22.17z"/>
<path class="st0" d="M361.98,166.93c0,9.66,0.06,19.33-0.02,28.99c-0.06,6.75-3.76,10.47-10.01,10.33
	c-5.52-0.13-8.71-3.92-8.72-10.46c-0.03-19.49,0.01-38.99-0.07-58.48c-0.02-4.23,1.49-7.54,5.28-9.43
	c3.56-1.77,7.49-1.76,10.17,1.24c1.81,2.02,3.18,5.15,3.29,7.84c0.38,9.98,0.15,19.99,0.15,29.98
	C362.03,166.93,362.01,166.93,361.98,166.93z"/>
<path class="st1" d="M596.33,53.47c0,9.81,0.04,19.63-0.01,29.44c-0.03,6.41-3.66,10.49-9.29,10.62c-5.73,0.13-9.24-3.66-9.26-10.42
	c-0.07-19.63-0.08-39.25-0.03-58.88c0.02-6.61,3.63-10.49,9.39-10.41c5.64,0.08,9.05,4.04,9.08,10.71
	c0.04,9.65,0.01,19.29,0.01,28.94C596.25,53.47,596.29,53.47,596.33,53.47z"/>
<path class="st2" d="M664.12,161.09c0-6.87,0-12.49,0-19.22c7.12,0.34,14.19,0.39,21.18,1.13c4.51,0.48,6.2,3.99,6.21,8.31
	c0.01,4.26-1.42,7.87-6.03,8.4C678.62,160.5,671.69,160.64,664.12,161.09z"/>
<path class="st2" d="M589.07,156.88c2.41,5.52,4.35,9.98,6.65,15.23c-4.62,0-8.47,0-13.06,0
	C584.9,166.79,586.74,162.42,589.07,156.88z"/>
<path class="st2" d="M280.74,144.39c5.49,0,10.84-0.64,15.94,0.2c4.29,0.7,5.58,4.96,5.53,8.95c-0.05,4.2-1.34,8.19-6.27,8.8
	c-4.08,0.5-8.28,0.43-12.39,0.13c-1-0.07-2.61-1.96-2.68-3.1C280.56,154.6,280.74,149.81,280.74,144.39z"/>
<path class="st0" d="M95.88,158.13c-5.16,0-10.33-0.14-15.49,0.05c-3.93,0.14-6.26-1.4-5.98-5.4c0.25-3.61-1.55-5.26-4.37-6.96
	c-21.92-13.23-30.72-41.23-20.09-63.48c11.67-24.43,38.11-35.58,63.13-26.63c25.29,9.04,39.09,38.68,29.86,63.64
	c-4.38,11.84-11.88,20.78-22.65,27.27c-1.58,0.95-3,3.49-3.09,5.37c-0.22,4.74-2.18,6.51-6.86,6.23c-4.81-0.29-9.66-0.06-14.49-0.06
	C95.88,158.15,95.88,158.14,95.88,158.13z M103.35,109.62c5.1-1.43,13.63,1.54,13.3-7.78c-0.29-8.32-8.03-5.92-13.26-7.05
	c-0.78-5.36,1.26-13.11-7.09-13.02c-9.32,0.1-5.99,8.9-7.63,14.25c-2.83,0.18-5.5,0.12-8.09,0.56c-3.61,0.61-6.43,2.56-6.03,6.62
	c0.38,3.84,3.1,5.71,6.89,5.86c2.43,0.09,4.86,0.02,7.51,0.02c0.16,3.4,0.06,6.07,0.45,8.67c0.52,3.42,2.41,5.95,6.13,6.17
	c3.92,0.24,5.59-2.45,6.36-5.77C102.52,115.44,102.85,112.66,103.35,109.62z"/>
<path class="st0" d="M95.76,174.11c-5.32,0-10.63-0.02-15.94,0.01c-2.83,0.02-4.95-0.78-5.05-4.08c-0.1-3.38,2.03-4.19,4.86-4.19
	c10.8,0,21.59,0.02,32.39-0.04c3-0.01,4.98,1.21,4.81,4.29c-0.16,2.95-2.07,4.16-5.12,4.07c-5.31-0.17-10.63-0.05-15.94-0.05
	C95.76,174.12,95.76,174.12,95.76,174.11z"/>
<path class="st0" d="M95.69,180.63c2.15,0,4.48-0.53,6.38,0.16c1.68,0.6,3.96,2.54,3.98,3.92c0.02,1.42-2.22,3.88-3.75,4.11
	c-4.2,0.64-8.6,0.78-12.81,0.23c-1.62-0.21-3.69-2.66-4.09-4.42c-0.23-1.01,2.24-3.3,3.9-3.91c1.89-0.7,4.24-0.16,6.38-0.16
	C95.69,180.58,95.69,180.61,95.69,180.63z"/>
</svg>
